<svg width="1239" height="527" viewBox="0 0 1239 527" fill="none" xmlns="http://www.w3.org/2000/svg">
<path fill-rule="evenodd" clip-rule="evenodd" d="M263.5 0L974.899 0C1120.43 0 1238.4 117.973 1238.4 263.5C1238.4 409.027 1120.43 527 974.9 527H263.5C117.973 527 0 409.027 0 263.5C0 117.973 117.973 0 263.5 0ZM263.5 21.0508C129.599 21.0508 21.0508 129.599 21.0508 263.5C21.0508 397.401 129.599 505.949 263.5 505.949L974.9 505.949C1108.8 505.949 1217.35 397.401 1217.35 263.5C1217.35 129.599 1108.8 21.0508 974.899 21.0508L263.5 21.0508Z" fill="#282828"/>
</svg>
