<svg width="1239" height="527" viewBox="0 0 1239 527" fill="none" xmlns="http://www.w3.org/2000/svg">
<path d="M21.0491 263.498C21.0491 129.597 129.597 21.0488 263.498 21.0488L974.898 21.0488C1108.8 21.0488 1217.35 129.597 1217.35 263.498C1217.35 397.399 1108.8 505.947 974.898 505.947L263.499 505.947C129.598 505.947 21.0491 397.399 21.0491 263.498Z" fill="#90FFA2"/>
<path fill-rule="evenodd" clip-rule="evenodd" d="M263.5 0L974.899 0C1120.43 0 1238.4 117.973 1238.4 263.5C1238.4 409.027 1120.43 527 974.9 527H263.5C117.973 527 0 409.027 0 263.5C0 117.973 117.973 0 263.5 0ZM263.5 21.0508C129.599 21.0508 21.0508 129.599 21.0508 263.5C21.0508 397.401 129.599 505.949 263.5 505.949L974.9 505.949C1108.8 505.949 1217.35 397.401 1217.35 263.5C1217.35 129.599 1108.8 21.0508 974.899 21.0508L263.5 21.0508Z" fill="#282828"/>
<path d="M241.702 383.215V144.001L193 144.478V383.215H241.702Z" fill="#282828"/>
<path d="M338.316 192.703V383.215H386.54V192.703H459.116V144.478H265.74V192.703H338.316Z" fill="#282828"/>
<path d="M949.794 144.38L887.723 378.341V144.38H792.228L728.724 383.116H776.949L839.02 149.155V383.116H934.515L996.586 149.155V383.116H1045.29V144.38H949.794Z" fill="#282828"/>
<path d="M638.854 371.634H687.078L624.052 206.111L576.544 206.11L529.035 206.111L465.531 371.634H513.756L576.544 206.11L638.854 371.634Z" fill="white"/>
<path fill-rule="evenodd" clip-rule="evenodd" d="M630.91 383.116L576.505 238.593L521.684 383.116H448.83L521.145 194.628H631.969L703.74 383.116H630.91ZM576.546 206.11L638.856 371.634H687.081L624.055 206.11L576.546 206.11L529.038 206.11L465.534 371.634H513.759L576.546 206.11Z" fill="#282828"/>
</svg>
